#Comment line ignore any data following # character 
#Hierarchical Translation and Rotation (.htr) file 
[Header]	
#Header keywords are followed by a single value 
FileType HTR		#Single word string
DataType HTRS		#Translation followed by rotation and scale data
FileVersion 1		#integer
NumSegments 84		#integer
NumFrames 2		#integer
DataFrameRate 30		#integer, data frame rate in this file
EulerRotationOrder ZYX
CalibrationUnits mm
RotationUnits Degrees
GlobalAxisofGravity Y
BoneLengthAxis Y
ScaleFactor 1.00
[SegmentNames&Hierarchy]
#CHILD	PARENT
MASTER GLOBAL
root MASTER
chest root
L_mid_tent01 root
R_mid_tent01 root
spine01 root
Bip01_Neck chest
L_humerus chest
R_humerus chest
weapon_bone chest
Bip01_Head Bip01_Neck
eye_left_bone Bip01_Head
eye_right_bone Bip01_Head
L_forearm L_humerus
L_front_hand L_forearm
L_weapon_bone L_forearm
L_front_hand01_01 L_front_hand
L_front_hand02_01 L_front_hand
L_front_hand03_01 L_front_hand
L_front_hand01_02 L_front_hand01_01
L_front_hand02_02 L_front_hand02_01
L_front_hand03_02 L_front_hand03_01
R_forearm R_humerus
R_front_hand R_forearm
R_weapon_bone R_forearm
R_front_hand01_01 R_front_hand
R_front_hand02_01 R_front_hand
R_front_hand03_01 R_front_hand
R_front_hand01_02 R_front_hand01_01
R_front_hand02_02 R_front_hand02_01
R_front_hand03_02 R_front_hand03_01
null_rope01_connect L_mid_tent01
Rope1_Seg01 null_rope01_connect
Rope1_Seg02 Rope1_Seg01
Rope1_Seg03 Rope1_Seg02
Rope1_Seg04 Rope1_Seg03
Rope1_Seg05 Rope1_Seg04
Rope1_Seg06 Rope1_Seg05
Rope1_Seg07 Rope1_Seg06
Rope1_Seg09 Rope1_Seg07
L_mid_hand01 Rope1_Seg09
L_mid_hand02 Rope1_Seg09
L_mid_hand03 Rope1_Seg09
null_rope02_connect R_mid_tent01
Rope2_Seg01 null_rope02_connect
Rope2_Seg02 Rope2_Seg01
Rope2_Seg03 Rope2_Seg02
Rope2_Seg04 Rope2_Seg03
Rope2_Seg05 Rope2_Seg04
Rope2_Seg06 Rope2_Seg05
Rope2_Seg07 Rope2_Seg06
Rope2_Seg09 Rope2_Seg07
R_mid_hand01 Rope2_Seg09
R_mid_hand02 Rope2_Seg09
R_mid_hand03 Rope2_Seg09
spine02 spine01
spine03 spine02
pelvis spine03
null_rope03_connect pelvis
null_rope04_connect pelvis
Rope3_Seg01 null_rope03_connect
Rope3_Seg02 Rope3_Seg01
Rope3_Seg03 Rope3_Seg02
Rope3_Seg04 Rope3_Seg03
Rope3_Seg05 Rope3_Seg04
Rope3_Seg06 Rope3_Seg05
Rope3_Seg07 Rope3_Seg06
Rope3_Seg08 Rope3_Seg07
Rope3_Seg09 Rope3_Seg08
R_rear_hand01 Rope3_Seg09
R_rear_hand02 Rope3_Seg09
R_rear_hand03 Rope3_Seg09
Rope4_Seg01 null_rope04_connect
Rope4_Seg02 Rope4_Seg01
Rope4_Seg03 Rope4_Seg02
Rope4_Seg04 Rope4_Seg03
Rope4_Seg05 Rope4_Seg04
Rope4_Seg06 Rope4_Seg05
Rope4_Seg07 Rope4_Seg06
Rope4_Seg08 Rope4_Seg07
Rope4_Seg09 Rope4_Seg08
L_rear_hand01 Rope4_Seg09
L_rear_hand02 Rope4_Seg09
L_rear_hand03 Rope4_Seg09
[BasePosition]
#SegmentName Tx, Ty, Tz, Rx, Ry, Rz, BoneLength
MASTER 0.000000 0.000000 0.000000 -90.000000 0.000000 0.000000 10.000000 
root 0.000000 0.000000 0.000000 0.000000 0.000000 0.000000 10.000000 
chest 0.000000 0.000000 0.000000 0.000000 0.000000 0.000000 10.000000 
L_mid_tent01 0.000000 0.000000 0.000000 0.000000 0.000000 0.000000 10.000000 
R_mid_tent01 0.000000 0.000000 0.000000 0.000000 0.000000 0.000000 10.000000 
spine01 0.000000 0.000000 0.000000 0.000000 0.000000 0.000000 10.000000 
Bip01_Neck 0.000000 0.000000 0.000000 0.000000 0.000000 0.000000 10.000000 
L_humerus 0.000000 0.000000 0.000000 0.000000 0.000000 0.000000 10.000000 
R_humerus 0.000000 0.000000 0.000000 0.000000 0.000000 0.000000 10.000000 
weapon_bone 0.000000 0.000000 0.000000 0.000000 0.000000 0.000000 10.000000 
Bip01_Head 0.000000 0.000000 0.000000 0.000000 0.000000 0.000000 10.000000 
eye_left_bone 0.000000 0.000000 0.000000 0.000000 0.000000 0.000000 10.000000 
eye_right_bone 0.000000 0.000000 0.000000 0.000000 0.000000 0.000000 10.000000 
L_forearm 0.000000 0.000000 0.000000 0.000000 0.000000 0.000000 10.000000 
L_front_hand 0.000000 0.000000 0.000000 0.000000 0.000000 0.000000 10.000000 
L_weapon_bone 0.000000 0.000000 0.000000 0.000000 0.000000 0.000000 10.000000 
L_front_hand01_01 0.000000 0.000000 0.000000 0.000000 0.000000 0.000000 10.000000 
L_front_hand02_01 0.000000 0.000000 0.000000 0.000000 0.000000 0.000000 10.000000 
L_front_hand03_01 0.000000 0.000000 0.000000 0.000000 0.000000 0.000000 10.000000 
L_front_hand01_02 0.000000 0.000000 0.000000 0.000000 0.000000 0.000000 10.000000 
L_front_hand02_02 0.000000 0.000000 0.000000 0.000000 0.000000 0.000000 10.000000 
L_front_hand03_02 0.000000 0.000000 0.000000 0.000000 0.000000 0.000000 10.000000 
R_forearm 0.000000 0.000000 0.000000 0.000000 0.000000 0.000000 10.000000 
R_front_hand 0.000000 0.000000 0.000000 0.000000 0.000000 0.000000 10.000000 
R_weapon_bone 0.000000 0.000000 0.000000 0.000000 0.000000 0.000000 10.000000 
R_front_hand01_01 0.000000 0.000000 0.000000 0.000000 0.000000 0.000000 10.000000 
R_front_hand02_01 0.000000 0.000000 0.000000 0.000000 0.000000 0.000000 10.000000 
R_front_hand03_01 0.000000 0.000000 0.000000 0.000000 0.000000 0.000000 10.000000 
R_front_hand01_02 0.000000 0.000000 0.000000 0.000000 0.000000 0.000000 10.000000 
R_front_hand02_02 0.000000 0.000000 0.000000 0.000000 0.000000 0.000000 10.000000 
R_front_hand03_02 0.000000 0.000000 0.000000 0.000000 0.000000 0.000000 10.000000 
null_rope01_connect 0.000000 0.000000 0.000000 0.000000 0.000000 0.000000 10.000000 
Rope1_Seg01 0.000000 0.000000 0.000000 0.000000 0.000000 0.000000 10.000000 
Rope1_Seg02 0.000000 0.000000 0.000000 0.000000 0.000000 0.000000 10.000000 
Rope1_Seg03 0.000000 0.000000 0.000000 0.000000 0.000000 0.000000 10.000000 
Rope1_Seg04 0.000000 0.000000 0.000000 0.000000 0.000000 0.000000 10.000000 
Rope1_Seg05 0.000000 0.000000 0.000000 0.000000 0.000000 0.000000 10.000000 
Rope1_Seg06 0.000000 0.000000 0.000000 0.000000 0.000000 0.000000 10.000000 
Rope1_Seg07 0.000000 0.000000 0.000000 0.000000 0.000000 0.000000 10.000000 
Rope1_Seg09 0.000000 0.000000 0.000000 0.000000 0.000000 0.000000 10.000000 
L_mid_hand01 0.000000 0.000000 0.000000 0.000000 0.000000 0.000000 10.000000 
L_mid_hand02 0.000000 0.000000 0.000000 0.000000 0.000000 0.000000 10.000000 
L_mid_hand03 0.000000 0.000000 0.000000 0.000000 0.000000 0.000000 10.000000 
null_rope02_connect 0.000000 0.000000 0.000000 0.000000 0.000000 0.000000 10.000000 
Rope2_Seg01 0.000000 0.000000 0.000000 0.000000 0.000000 0.000000 10.000000 
Rope2_Seg02 0.000000 0.000000 0.000000 0.000000 0.000000 0.000000 10.000000 
Rope2_Seg03 0.000000 0.000000 0.000000 0.000000 0.000000 0.000000 10.000000 
Rope2_Seg04 0.000000 0.000000 0.000000 0.000000 0.000000 0.000000 10.000000 
Rope2_Seg05 0.000000 0.000000 0.000000 0.000000 0.000000 0.000000 10.000000 
Rope2_Seg06 0.000000 0.000000 0.000000 0.000000 0.000000 0.000000 10.000000 
Rope2_Seg07 0.000000 0.000000 0.000000 0.000000 0.000000 0.000000 10.000000 
Rope2_Seg09 0.000000 0.000000 0.000000 0.000000 0.000000 0.000000 10.000000 
R_mid_hand01 0.000000 0.000000 0.000000 0.000000 0.000000 0.000000 10.000000 
R_mid_hand02 0.000000 0.000000 0.000000 0.000000 0.000000 0.000000 10.000000 
R_mid_hand03 0.000000 0.000000 0.000000 0.000000 0.000000 0.000000 10.000000 
spine02 0.000000 0.000000 0.000000 0.000000 0.000000 0.000000 10.000000 
spine03 0.000000 0.000000 0.000000 0.000000 0.000000 0.000000 10.000000 
pelvis 0.000000 0.000000 0.000000 0.000000 0.000000 0.000000 10.000000 
null_rope03_connect 0.000000 0.000000 0.000000 0.000000 0.000000 0.000000 10.000000 
null_rope04_connect 0.000000 0.000000 0.000000 0.000000 0.000000 0.000000 10.000000 
Rope3_Seg01 0.000000 0.000000 0.000000 0.000000 0.000000 0.000000 10.000000 
Rope3_Seg02 0.000000 0.000000 0.000000 0.000000 0.000000 0.000000 10.000000 
Rope3_Seg03 0.000000 0.000000 0.000000 0.000000 0.000000 0.000000 10.000000 
Rope3_Seg04 0.000000 0.000000 0.000000 0.000000 0.000000 0.000000 10.000000 
Rope3_Seg05 0.000000 0.000000 0.000000 0.000000 0.000000 0.000000 10.000000 
Rope3_Seg06 0.000000 0.000000 0.000000 0.000000 0.000000 0.000000 10.000000 
Rope3_Seg07 0.000000 0.000000 0.000000 0.000000 0.000000 0.000000 10.000000 
Rope3_Seg08 0.000000 0.000000 0.000000 0.000000 0.000000 0.000000 10.000000 
Rope3_Seg09 0.000000 0.000000 0.000000 0.000000 0.000000 0.000000 10.000000 
R_rear_hand01 0.000000 0.000000 0.000000 0.000000 0.000000 0.000000 10.000000 
R_rear_hand02 0.000000 0.000000 0.000000 0.000000 0.000000 0.000000 10.000000 
R_rear_hand03 0.000000 0.000000 0.000000 0.000000 0.000000 0.000000 10.000000 
Rope4_Seg01 0.000000 0.000000 0.000000 0.000000 0.000000 0.000000 10.000000 
Rope4_Seg02 0.000000 0.000000 0.000000 0.000000 0.000000 0.000000 10.000000 
Rope4_Seg03 0.000000 0.000000 0.000000 0.000000 0.000000 0.000000 10.000000 
Rope4_Seg04 0.000000 0.000000 0.000000 0.000000 0.000000 0.000000 10.000000 
Rope4_Seg05 0.000000 0.000000 0.000000 0.000000 0.000000 0.000000 10.000000 
Rope4_Seg06 0.000000 0.000000 0.000000 0.000000 0.000000 0.000000 10.000000 
Rope4_Seg07 0.000000 0.000000 0.000000 0.000000 0.000000 0.000000 10.000000 
Rope4_Seg08 0.000000 0.000000 0.000000 0.000000 0.000000 0.000000 10.000000 
Rope4_Seg09 0.000000 0.000000 0.000000 0.000000 0.000000 0.000000 10.000000 
L_rear_hand01 0.000000 0.000000 0.000000 0.000000 0.000000 0.000000 10.000000 
L_rear_hand02 0.000000 0.000000 0.000000 0.000000 0.000000 0.000000 10.000000 
L_rear_hand03 0.000000 0.000000 0.000000 0.000000 0.000000 0.000000 10.000000 
#Beginning of Data. Separated by tabs
#Fr	Tx	Ty	Tz	Rx	Ry	Rz	SF
[MASTER]
24 0.000832 -7750.535645 -169.615753 0.001660 0.001660 0.001660 7752.391602
25 0.000858 -7996.454102 -136.736496 0.001660 0.001660 0.001660 7997.623047
[root]
24 -28.951389 -56.693928 1501.528809 -101.365158 -41.744781 -87.710564 1502.877686
25 -27.884630 -56.740719 1501.395752 -101.375427 -39.023533 -87.975594 1502.726196
[chest]
24 -84.512650 -34.090519 0.000000 -4.491238 -3.480327 177.653824 91.129311
25 -84.512650 -34.090519 0.000000 -2.594532 -0.201363 179.701126 91.129311
[L_mid_tent01]
24 27.299181 22.179106 -249.918701 6.162592 36.559464 85.819420 252.381699
25 27.299183 22.179106 -249.918701 3.862628 36.229202 81.347610 252.381699
[R_mid_tent01]
24 23.228794 24.509907 226.238495 161.090500 -53.809441 89.665726 228.744751
25 23.228794 24.509907 226.238495 160.432037 -47.061241 87.899765 228.744751
[spine01]
24 -0.361383 -0.195265 0.000000 0.001976 0.001267 24.683119 0.410763
25 -0.361383 -0.195265 0.000000 0.001970 0.001277 24.106297 0.410763
[Bip01_Neck]
24 165.484543 71.581718 0.000119 176.643677 -1.657967 43.431911 180.302734
25 165.484543 71.581718 0.000119 176.643677 -1.657967 43.431911 180.302734
[L_humerus]
24 -13.983130 -135.272980 -120.471481 157.362366 67.882950 -110.776932 181.680161
25 -13.983130 -135.272980 -120.471481 156.317398 70.210068 -112.010254 181.680161
[R_humerus]
24 -13.983309 -135.273102 125.287651 -171.553818 -64.711090 -93.351883 184.909012
25 -13.983309 -135.273102 125.287651 -172.382263 -66.903831 -92.553993 184.909012
[weapon_bone]
24 235.964890 -300.705902 0.000000 0.000000 -89.951546 -128.212341 382.234833
25 235.964890 -300.705902 0.000000 0.000000 -89.951546 -128.212341 382.234833
[Bip01_Head]
24 213.337387 186.013611 7.926430 9.742489 3.362870 -43.890522 283.154968
25 213.338608 186.010437 7.967224 9.067745 3.281933 -43.888077 283.154938
[eye_left_bone]
24 -24.626970 125.451866 -64.772606 0.000000 -90.000000 -99.840431 143.318359
25 -24.626970 125.451866 -64.772606 0.000000 -90.000000 -99.840431 143.318359
[eye_right_bone]
24 -24.626970 125.451866 64.327362 0.000000 -89.965736 80.156380 143.117676
25 -24.626970 125.451866 64.327362 0.000000 -89.965736 80.156380 143.117676
[L_forearm]
24 322.776093 0.000000 -0.000119 0.000039 0.002347 -88.092361 322.776093
25 322.776093 0.000000 -0.000119 0.000119 -0.002344 -95.807457 322.776093
[L_front_hand]
24 241.149185 -0.042021 -3.300071 -96.272308 -1.836968 -27.422157 241.171753
25 241.149185 -0.042021 -3.300071 -30.076220 -1.836578 -27.421785 241.171753
[L_weapon_bone]
24 156.183838 0.000000 0.000000 0.000014 0.000007 0.000001 156.183838
25 156.183838 0.000000 0.000000 0.000014 0.000007 0.000001 156.183838
[L_front_hand01_01]
24 86.095154 20.947098 -0.655860 -0.365735 -0.477812 75.179466 88.609184
25 86.095154 20.947098 -0.655860 -0.366594 -0.477154 75.385574 88.609184
[L_front_hand02_01]
24 86.935165 -11.437475 24.513514 154.083481 -59.794327 -61.001266 91.046425
25 86.935165 -11.437475 24.513514 154.399796 -59.883835 -61.369587 91.046425
[L_front_hand03_01]
24 86.637497 -14.123976 -20.424902 -153.626984 58.028236 -62.364826 90.126129
25 86.637497 -14.123976 -20.424902 -153.913849 58.118122 -62.702866 90.126129
[L_front_hand01_02]
24 71.020905 -0.000179 0.000030 0.000305 -0.002327 -104.952225 71.020905
25 71.020905 -0.000179 0.000030 0.000334 -0.002323 -106.379684 71.020905
[L_front_hand02_02]
24 71.020927 -0.000119 0.000060 0.000305 -0.002327 -104.952225 71.020927
25 71.020927 -0.000119 0.000060 0.000334 -0.002323 -106.379684 71.020927
[L_front_hand03_02]
24 71.020905 -0.000060 0.000060 0.000305 -0.002327 -104.952225 71.020905
25 71.020905 -0.000060 0.000060 0.000334 -0.002323 -106.379684 71.020905
[R_forearm]
24 322.776428 -0.000060 0.000030 0.213229 -0.010396 -88.789581 322.776428
25 322.776428 -0.000060 0.000030 0.209504 0.012586 -94.339050 322.776428
[R_front_hand]
24 238.847015 -0.006795 2.210259 -133.343277 -10.644385 -26.316502 238.857239
25 238.847015 -0.006795 2.210259 158.362015 -10.646729 -26.313385 238.857239
[R_weapon_bone]
24 155.664093 0.002503 -0.000030 0.003487 0.001180 -90.988930 155.664078
25 155.664093 0.002503 -0.000030 0.003487 0.001180 -90.988930 155.664078
[R_front_hand01_01]
24 87.624611 14.231146 22.918642 -154.075531 -59.794098 61.098236 91.683487
25 87.624611 14.231146 22.918642 -154.633499 -59.950619 61.746044 91.683487
[R_front_hand02_01]
24 89.356956 14.367283 -19.491137 154.082336 58.148972 63.134533 92.579636
25 89.356956 14.367283 -19.491137 154.602661 58.302849 63.744389 92.579636
[R_front_hand03_01]
24 87.286232 -22.307278 -0.143439 0.156919 -0.426699 -75.411163 90.091743
25 87.286232 -22.307278 -0.143439 0.162155 -0.423168 -75.767921 90.091743
[R_front_hand01_02]
24 71.020905 0.000060 0.000119 0.002327 -0.000305 104.948051 71.020905
25 71.020905 0.000060 0.000119 0.002323 -0.000334 106.381714 71.020905
[R_front_hand02_02]
24 71.020844 -0.000030 -0.000119 0.002327 -0.000305 104.948051 71.020836
25 71.020844 -0.000030 -0.000119 0.002323 -0.000334 106.381714 71.020836
[R_front_hand03_02]
24 71.020905 0.000000 0.000030 0.002327 -0.000305 104.948051 71.020905
25 71.020905 0.000000 0.000030 0.002323 -0.000334 106.381714 71.020905
[null_rope01_connect]
24 328.732483 0.000000 -0.000238 -127.888000 -43.742054 177.444992 328.732483
25 328.732483 0.000000 -0.000238 -130.021362 -44.105347 -179.466278 328.732483
[Rope1_Seg01]
24 -0.000031 -0.000007 0.000153 103.643700 -26.693247 177.288864 0.000156
25 -0.000033 -0.000005 0.000153 90.397545 -42.865631 -166.575485 0.000156
[Rope1_Seg02]
24 139.999863 -0.000179 0.000000 6.808022 -4.910053 -21.986460 139.999863
25 139.999863 -0.000179 0.000000 6.118122 -0.993724 -23.837416 139.999863
[Rope1_Seg03]
24 139.999924 0.000060 -0.000060 15.133055 -3.400449 -27.822327 139.999924
25 139.999924 0.000060 -0.000060 26.885342 -1.372522 -38.755455 139.999924
[Rope1_Seg04]
24 139.999924 -0.000060 -0.000119 13.108599 -11.584310 -10.243873 139.999924
25 139.999924 -0.000060 -0.000119 15.332852 -16.554384 -5.378440 139.999924
[Rope1_Seg05]
24 139.999832 0.000119 -0.000060 0.896289 -19.118740 12.253142 139.999832
25 139.999832 0.000119 -0.000060 0.331244 -21.426100 14.809242 139.999832
[Rope1_Seg06]
24 139.999954 0.000119 -0.000060 -0.064637 -13.069424 7.057429 139.999954
25 139.999954 0.000119 -0.000060 -0.285973 -15.316152 7.595786 139.999954
[Rope1_Seg07]
24 139.999985 0.000060 0.000000 -0.400563 -7.790008 3.648268 139.999985
25 139.999985 0.000060 0.000000 -0.175412 -4.091761 2.046959 139.999985
[Rope1_Seg09]
24 121.602913 0.000119 -0.000089 -89.793175 -1.359789 0.847147 121.602913
25 121.602913 0.000119 -0.000089 -89.793175 -1.359789 0.847147 121.602913
[L_mid_hand01]
24 103.859421 1.038730 8.195221 130.544373 -67.584534 -38.866943 104.187431
25 103.859421 1.038730 8.195221 130.544373 -67.584534 -38.866943 104.187431
[L_mid_hand02]
24 105.572853 -4.139662 -10.864139 -168.923172 43.409309 -73.498886 106.211075
25 105.572853 -4.139662 -10.864139 -168.923172 43.409309 -73.498886 106.211075
[L_mid_hand03]
24 104.641464 17.579376 -3.913581 -6.012627 17.808174 74.893669 106.179977
25 104.641464 17.579376 -3.913581 -6.012627 17.808174 74.893669 106.179977
[null_rope02_connect]
24 328.732849 0.000179 -0.000119 -110.200134 42.097019 20.698732 328.732849
25 328.732849 0.000179 -0.000119 -106.480988 47.770748 26.430622 328.732849
[Rope2_Seg01]
24 0.000095 0.000522 0.000000 3.262409 -10.607827 -31.172703 0.000530
25 0.000095 0.000540 0.000000 17.123388 -21.212492 -37.717934 0.000548
[Rope2_Seg02]
24 139.999741 -0.000060 -0.000119 -20.642181 7.156921 10.913246 139.999756
25 139.999741 -0.000060 -0.000119 -11.270514 7.516362 6.445281 139.999756
[Rope2_Seg03]
24 140.000107 0.000030 0.000000 -23.185812 3.720166 18.129475 140.000107
25 140.000107 0.000030 0.000000 -21.685705 10.209743 13.454515 140.000107
[Rope2_Seg04]
24 139.999802 0.000000 -0.000060 -14.231477 -4.478332 19.228107 139.999802
25 139.999802 0.000000 -0.000060 -24.516211 5.822219 23.022278 139.999802
[Rope2_Seg05]
24 139.999985 -0.000060 0.000119 -7.179760 -5.722394 15.277863 139.999985
25 139.999985 -0.000060 0.000119 -12.533613 -2.626252 19.132145 139.999985
[Rope2_Seg06]
24 139.999893 -0.000030 -0.000119 -4.466028 -6.356687 15.368030 139.999893
25 139.999893 -0.000030 -0.000119 -10.049712 -9.214426 27.276777 139.999893
[Rope2_Seg07]
24 139.999893 0.000060 -0.000060 -1.457780 -5.766244 10.678347 139.999893
25 139.999893 0.000060 -0.000060 -1.903526 -8.220254 15.958683 139.999893
[Rope2_Seg09]
24 121.338966 0.000089 -0.000060 33.793236 -1.359788 -0.847141 121.338966
25 121.338966 0.000089 -0.000060 33.793236 -1.359788 -0.847141 121.338966
[R_mid_hand01]
24 104.680779 11.144459 -10.335981 -16.212063 45.237247 70.462852 105.778534
25 104.680779 11.144459 -10.335981 -16.212063 45.237247 70.462852 105.778534
[R_mid_hand02]
24 104.070427 2.443552 8.231699 49.067368 -67.749771 39.286453 104.424065
25 104.070427 2.443552 8.231699 49.067368 -67.749771 39.286453 104.424065
[R_mid_hand03]
24 106.028137 -11.221827 -5.996406 -177.101105 15.551026 -76.585571 106.788818
25 106.028137 -11.221827 -5.996406 -177.101105 15.551026 -76.585571 106.788818
[spine02]
24 129.756927 0.001550 0.000119 0.390143 -4.041680 -13.349489 129.756927
25 129.756927 0.001550 0.000119 0.380117 -4.042739 -13.204658 129.756927
[spine03]
24 78.613426 0.081733 -4.899053 1.915216 3.822797 16.751108 78.765968
25 78.613396 0.081744 -4.899055 1.907418 3.827588 16.653389 78.765938
[pelvis]
24 169.435242 0.051022 0.000000 -0.061335 -0.179931 14.641243 169.435257
25 169.435242 0.051022 0.000000 -0.061045 -0.180030 14.456768 169.435257
[null_rope03_connect]
24 -1.257226 -2.466202 137.391083 -147.929291 -81.178169 -122.856880 137.418976
25 -1.257226 -2.466202 137.391083 -149.591827 -80.927658 -123.226883 137.418976
[null_rope04_connect]
24 -1.259640 -2.480268 -137.844437 -147.929291 -81.178169 -122.856880 137.872513
25 -1.259640 -2.480268 -137.844437 -149.591827 -80.927658 -123.226883 137.872513
[Rope3_Seg01]
24 -0.000019 0.000495 -0.000027 -169.840225 -47.135700 -34.130505 0.000496
25 -0.000019 0.000518 -0.000022 -151.811768 -39.755234 -49.701096 0.000519
[Rope3_Seg02]
24 139.999924 -0.000119 0.000060 -10.657100 3.493477 -12.342505 139.999924
25 139.999924 -0.000119 0.000060 -5.744118 2.349922 -10.253274 139.999924
[Rope3_Seg03]
24 139.999924 -0.000119 0.000119 -22.558380 10.272495 -14.683799 139.999924
25 139.999924 -0.000119 0.000119 -18.754105 9.561772 -17.764839 139.999924
[Rope3_Seg04]
24 139.999924 0.000119 0.000000 -23.794653 12.982300 -12.056148 139.999924
25 139.999924 0.000119 0.000000 -32.230335 -2.671281 -29.809025 139.999924
[Rope3_Seg05]
24 139.999924 -0.000238 0.000060 -61.222988 18.029272 -37.146194 139.999924
25 139.999924 -0.000238 0.000060 -127.491150 6.966173 -73.138321 139.999924
[Rope3_Seg06]
24 139.999893 -0.000119 -0.000060 -22.669804 31.905401 -3.052724 139.999893
25 139.999893 -0.000119 -0.000060 -0.173908 10.110851 9.764314 139.999893
[Rope3_Seg07]
24 139.999771 0.000060 -0.000119 -2.486738 11.446103 3.954372 139.999771
25 139.999771 0.000060 -0.000119 0.506119 0.001652 0.001667 139.999771
[Rope3_Seg08]
24 139.999985 -0.000060 0.000000 -0.016574 2.752008 1.094588 139.999985
25 139.999985 -0.000060 0.000000 0.535796 0.001652 0.001667 139.999985
[Rope3_Seg09]
24 90.185997 -0.000179 -0.000060 89.793228 -1.359877 -0.847183 90.185997
25 90.185997 -0.000179 -0.000060 89.793228 -1.359877 -0.847183 90.185997
[R_rear_hand01]
24 103.366196 -6.073594 -10.757982 -177.714203 24.565960 -73.910950 104.101845
25 103.366196 -6.073594 -10.757982 -177.714203 24.565960 -73.910950 104.101845
[R_rear_hand02]
24 100.509819 12.039542 -7.992327 -12.874829 36.868488 72.167213 101.543350
25 100.509819 12.039542 -7.992327 -12.874829 36.868488 72.167213 101.543350
[R_rear_hand03]
24 101.539970 5.215704 5.435467 71.484581 -71.816628 21.513813 101.819031
25 101.539970 5.215704 5.435467 71.484581 -71.816628 21.513813 101.819031
[Rope4_Seg01]
24 0.000010 0.000038 -0.000114 58.936058 -24.672104 -125.300438 0.000121
25 0.000010 0.000038 -0.000114 54.501698 -17.060072 -122.318878 0.000121
[Rope4_Seg02]
24 139.999985 0.000060 0.000119 13.679739 -26.202576 8.217745 139.999985
25 139.999985 0.000060 0.000119 7.203100 -17.513018 7.019730 139.999985
[Rope4_Seg03]
24 139.999924 0.000000 -0.000238 44.611958 -36.046120 28.430626 139.999924
25 139.999924 0.000000 -0.000238 35.013580 -41.667473 33.006016 139.999924
[Rope4_Seg04]
24 139.999985 0.000000 0.000119 17.381948 -0.962295 19.960829 139.999985
25 139.999985 0.000000 0.000119 22.074499 -7.053256 29.324184 139.999985
[Rope4_Seg05]
24 139.999802 -0.000060 -0.000119 10.333751 1.147534 17.021812 139.999802
25 139.999802 -0.000060 -0.000119 16.821280 -9.719207 57.278870 139.999802
[Rope4_Seg06]
24 139.999924 0.000000 0.000060 11.801167 6.804707 36.357388 139.999924
25 139.999924 0.000000 0.000060 0.111104 9.226352 43.297169 139.999924
[Rope4_Seg07]
24 139.999802 0.000000 0.000000 1.033424 9.337460 23.107151 139.999802
25 139.999802 0.000000 0.000000 -1.454894 0.959081 5.209590 139.999802
[Rope4_Seg08]
24 139.999924 0.000000 0.000119 -3.325917 3.988515 9.998510 139.999924
25 139.999924 0.000000 0.000119 -1.447465 0.001681 0.001639 139.999924
[Rope4_Seg09]
24 90.185791 0.000060 0.000060 -135.617828 2.228885 0.850567 90.185791
25 90.185791 0.000060 0.000060 -135.617828 2.228885 0.850567 90.185791
[L_rear_hand01]
24 101.696655 -8.392275 -7.654577 -12.874829 -36.868488 107.832764 102.329041
25 101.696655 -8.392275 -7.654577 -12.874829 -36.868488 107.832764 102.329041
[L_rear_hand02]
24 102.726799 -1.568258 5.773216 71.484581 71.816628 158.486160 102.900848
25 102.726799 -1.568258 5.773216 71.484581 71.816628 158.486160 102.900848
[L_rear_hand03]
24 104.552910 9.721220 -10.420293 -177.714203 -24.565960 -106.089035 105.519653
25 104.552910 9.721220 -10.420293 -177.714203 -24.565960 -106.089035 105.519653
